<svg width="32" height="32" viewBox="0 0 32 32" fill="none" xmlns="http://www.w3.org/2000/svg">
<path d="M11.7614 24H16.2494C19.0204 24 21.1284 22.827 21.1284 20.294C21.1284 18.594 20.1254 17.642 18.7654 17.319V17.234C19.8364 16.86 20.4824 15.67 20.4824 14.514C20.4824 12.168 18.5104 11.403 15.9264 11.403H11.7614V24ZM14.2774 16.537V13.341H15.7734C17.2864 13.341 18.0344 13.783 18.0344 14.888C18.0344 15.891 17.3374 16.537 15.7394 16.537H14.2774ZM14.2774 22.062V18.39H16.0284C17.7624 18.39 18.6804 18.917 18.6804 20.141C18.6804 21.45 17.7454 22.062 16.0284 22.062H14.2774Z" fill="white"/>
</svg>
