<svg width="32" height="32" viewBox="0 0 32 32" fill="none" xmlns="http://www.w3.org/2000/svg">
<path d="M11.0465 13.803C12.0665 13.803 12.8258 14.0523 13.3245 14.551C13.8232 15.0497 14.0725 15.8373 14.0725 16.914V23H13.3415L13.1715 21.47H13.1205C12.7918 21.98 12.3895 22.3937 11.9135 22.711C11.4488 23.017 10.7972 23.17 9.95849 23.17C9.08583 23.17 8.40016 22.9547 7.90149 22.524C7.40283 22.082 7.15349 21.453 7.15349 20.637C7.15349 19.7303 7.52183 19.0447 8.25849 18.58C8.99516 18.104 10.0662 17.8377 11.4715 17.781L13.1205 17.696V17.067C13.1205 16.183 12.9392 15.554 12.5765 15.18C12.2252 14.806 11.7038 14.619 11.0125 14.619C10.5478 14.619 10.1002 14.6813 9.66949 14.806C9.23883 14.9307 8.80816 15.095 8.37749 15.299L8.07149 14.517C8.50216 14.313 8.96683 14.143 9.46549 14.007C9.97549 13.871 10.5025 13.803 11.0465 13.803ZM13.1205 18.427L11.5905 18.495C10.4345 18.5517 9.57316 18.7557 9.00649 19.107C8.43983 19.447 8.15649 19.957 8.15649 20.637C8.15649 21.2037 8.33216 21.6343 8.68349 21.929C9.03483 22.2123 9.51649 22.354 10.1285 22.354C11.0692 22.354 11.8002 22.0877 12.3215 21.555C12.8428 21.011 13.1092 20.263 13.1205 19.311V18.427ZM17.9168 10.08V13.65C17.9168 13.9787 17.9111 14.33 17.8998 14.704C17.8884 15.0667 17.8771 15.3613 17.8658 15.588H17.9168C18.1434 15.078 18.5174 14.653 19.0388 14.313C19.5601 13.9617 20.2118 13.786 20.9938 13.786C22.1498 13.786 23.0508 14.1827 23.6968 14.976C24.3541 15.758 24.6828 16.9197 24.6828 18.461C24.6828 19.889 24.3541 21.0337 23.6968 21.895C23.0508 22.745 22.1044 23.17 20.8578 23.17C20.0984 23.17 19.4751 23.017 18.9878 22.711C18.5118 22.3937 18.1604 22.0027 17.9338 21.538H17.8658L17.6788 23H16.9478V10.08H17.9168ZM20.8748 14.619C19.8208 14.619 19.0614 14.9477 18.5968 15.605C18.1434 16.2623 17.9168 17.2143 17.9168 18.461V18.58C17.9168 19.804 18.1321 20.739 18.5628 21.385C19.0048 22.0197 19.7358 22.337 20.7558 22.337C21.7191 22.337 22.4444 22.0027 22.9318 21.334C23.4304 20.654 23.6798 19.6907 23.6798 18.444C23.6798 15.894 22.7448 14.619 20.8748 14.619Z" fill="white"/>
<path d="M6.35449 17.577H25.6518V18.427H6.35449V17.577Z" fill="white"/>
</svg>
