<svg width="32" height="32" viewBox="0 0 32 32" fill="none" xmlns="http://www.w3.org/2000/svg">
<path d="M20.3884 10.576V17.968C20.3884 18.7573 20.2284 19.472 19.9084 20.112C19.5884 20.7413 19.0978 21.2427 18.4364 21.616C17.7858 21.9787 16.9538 22.16 15.9404 22.16C14.5218 22.16 13.4391 21.776 12.6924 21.008C11.9564 20.2293 11.5884 19.2053 11.5884 17.936V10.576H13.0284V17.984C13.0284 18.912 13.2738 19.632 13.7644 20.144C14.2658 20.656 15.0178 20.912 16.0204 20.912C17.0551 20.912 17.8018 20.64 18.2604 20.096C18.7298 19.5413 18.9644 18.832 18.9644 17.968V10.576H20.3884Z" fill="white"/>
<path d="M10.1484 24H21.8444V24.8H10.1484V24Z" fill="white"/>
</svg>
